<mxfile host="app.diagrams.net" modified="2023-11-20T14:39:35.660Z" agent="Mozilla/5.0 (Windows NT 10.0; Win64; x64) AppleWebKit/537.36 (KHTML, like Gecko) Chrome/119.0.0.0 Safari/537.36" etag="7beycyaCayTP2T3gyA_F" version="22.1.3" type="device" pages="2">
  <diagram name="High Level" id="ego2eyFDyfzTXPemdoj9">
    <mxGraphModel dx="3068" dy="2746" grid="0" gridSize="10" guides="1" tooltips="1" connect="1" arrows="1" fold="1" page="0" pageScale="1" pageWidth="850" pageHeight="1100" math="0" shadow="0">
      <root>
        <mxCell id="0" />
        <mxCell id="1" parent="0" />
        <mxCell id="RGv7OVUdBosff1D2KzXT-2" style="edgeStyle=orthogonalEdgeStyle;rounded=0;orthogonalLoop=1;jettySize=auto;html=1;exitX=0.75;exitY=0;exitDx=0;exitDy=0;entryX=0.5;entryY=1;entryDx=0;entryDy=0;" parent="1" source="G7huQXMR552MbbWvrnf8-1" target="G7huQXMR552MbbWvrnf8-75" edge="1">
          <mxGeometry relative="1" as="geometry">
            <Array as="points">
              <mxPoint x="385" y="30" />
            </Array>
          </mxGeometry>
        </mxCell>
        <mxCell id="RGv7OVUdBosff1D2KzXT-3" style="edgeStyle=orthogonalEdgeStyle;rounded=0;orthogonalLoop=1;jettySize=auto;html=1;exitX=0.25;exitY=1;exitDx=0;exitDy=0;entryX=0.25;entryY=0;entryDx=0;entryDy=0;" parent="1" source="G7huQXMR552MbbWvrnf8-1" target="G7huQXMR552MbbWvrnf8-67" edge="1">
          <mxGeometry relative="1" as="geometry">
            <Array as="points">
              <mxPoint x="308" y="130" />
              <mxPoint x="308" y="180" />
            </Array>
          </mxGeometry>
        </mxCell>
        <mxCell id="G7huQXMR552MbbWvrnf8-1" value="INITIAL&lt;br&gt;power_red = 1&lt;br&gt;LCD_State = 0" style="rounded=1;whiteSpace=wrap;html=1;" parent="1" vertex="1">
          <mxGeometry x="275" y="30" width="150" height="100" as="geometry" />
        </mxCell>
        <mxCell id="G7huQXMR552MbbWvrnf8-2" style="edgeStyle=orthogonalEdgeStyle;rounded=0;orthogonalLoop=1;jettySize=auto;html=1;exitX=0.25;exitY=0;exitDx=0;exitDy=0;entryX=0.5;entryY=0;entryDx=0;entryDy=0;" parent="1" target="G7huQXMR552MbbWvrnf8-1" edge="1">
          <mxGeometry relative="1" as="geometry">
            <mxPoint x="312.5000000000001" y="30" as="sourcePoint" />
            <mxPoint x="387.5000000000001" y="30" as="targetPoint" />
            <Array as="points">
              <mxPoint x="312" y="10" />
              <mxPoint x="350" y="10" />
            </Array>
          </mxGeometry>
        </mxCell>
        <mxCell id="RGv7OVUdBosff1D2KzXT-8" style="edgeStyle=orthogonalEdgeStyle;rounded=0;orthogonalLoop=1;jettySize=auto;html=1;exitX=0.75;exitY=0;exitDx=0;exitDy=0;entryX=1;entryY=0.25;entryDx=0;entryDy=0;" parent="1" source="G7huQXMR552MbbWvrnf8-3" target="G7huQXMR552MbbWvrnf8-75" edge="1">
          <mxGeometry relative="1" as="geometry">
            <Array as="points">
              <mxPoint x="670" y="40" />
              <mxPoint x="670" y="-185" />
            </Array>
          </mxGeometry>
        </mxCell>
        <mxCell id="RGv7OVUdBosff1D2KzXT-10" style="edgeStyle=orthogonalEdgeStyle;rounded=0;orthogonalLoop=1;jettySize=auto;html=1;exitX=0;exitY=0.25;exitDx=0;exitDy=0;entryX=1;entryY=0.25;entryDx=0;entryDy=0;" parent="1" source="G7huQXMR552MbbWvrnf8-3" target="G7huQXMR552MbbWvrnf8-1" edge="1">
          <mxGeometry relative="1" as="geometry">
            <Array as="points">
              <mxPoint x="560" y="55" />
            </Array>
          </mxGeometry>
        </mxCell>
        <mxCell id="RGv7OVUdBosff1D2KzXT-11" style="edgeStyle=orthogonalEdgeStyle;rounded=0;orthogonalLoop=1;jettySize=auto;html=1;exitX=0.25;exitY=1;exitDx=0;exitDy=0;entryX=1;entryY=0.25;entryDx=0;entryDy=0;" parent="1" source="G7huQXMR552MbbWvrnf8-3" target="G7huQXMR552MbbWvrnf8-67" edge="1">
          <mxGeometry relative="1" as="geometry" />
        </mxCell>
        <mxCell id="RGv7OVUdBosff1D2KzXT-17" style="edgeStyle=orthogonalEdgeStyle;rounded=0;orthogonalLoop=1;jettySize=auto;html=1;exitX=1;exitY=0.5;exitDx=0;exitDy=0;entryX=0;entryY=0.5;entryDx=0;entryDy=0;" parent="1" source="G7huQXMR552MbbWvrnf8-3" target="RGv7OVUdBosff1D2KzXT-15" edge="1">
          <mxGeometry relative="1" as="geometry" />
        </mxCell>
        <mxCell id="G7huQXMR552MbbWvrnf8-3" value="INPUTTING" style="rounded=1;whiteSpace=wrap;html=1;" parent="1" vertex="1">
          <mxGeometry x="560.0000000000001" y="40" width="150" height="100" as="geometry" />
        </mxCell>
        <mxCell id="G7huQXMR552MbbWvrnf8-7" value="number_counter &amp;lt; 7&lt;br&gt;AND&lt;br&gt;t &amp;lt; 3" style="text;html=1;align=center;verticalAlign=middle;resizable=0;points=[];autosize=1;strokeColor=none;fillColor=none;" parent="1" vertex="1">
          <mxGeometry x="690" y="160" width="130" height="60" as="geometry" />
        </mxCell>
        <mxCell id="G7huQXMR552MbbWvrnf8-9" value="t &amp;gt;= 3" style="text;html=1;align=center;verticalAlign=middle;resizable=0;points=[];autosize=1;strokeColor=none;fillColor=none;" parent="1" vertex="1">
          <mxGeometry x="420" y="-60" width="50" height="30" as="geometry" />
        </mxCell>
        <mxCell id="G7huQXMR552MbbWvrnf8-39" style="edgeStyle=orthogonalEdgeStyle;rounded=0;orthogonalLoop=1;jettySize=auto;html=1;exitX=0.25;exitY=1;exitDx=0;exitDy=0;entryX=0.5;entryY=0;entryDx=0;entryDy=0;" parent="1" source="G7huQXMR552MbbWvrnf8-10" target="G7huQXMR552MbbWvrnf8-38" edge="1">
          <mxGeometry relative="1" as="geometry" />
        </mxCell>
        <mxCell id="64Icla_Xy5hZy8p8XkMD-18" style="edgeStyle=orthogonalEdgeStyle;rounded=0;orthogonalLoop=1;jettySize=auto;html=1;exitX=0.5;exitY=1;exitDx=0;exitDy=0;entryX=0.5;entryY=0;entryDx=0;entryDy=0;" edge="1" parent="1" source="G7huQXMR552MbbWvrnf8-10" target="64Icla_Xy5hZy8p8XkMD-13">
          <mxGeometry relative="1" as="geometry" />
        </mxCell>
        <mxCell id="64Icla_Xy5hZy8p8XkMD-19" style="edgeStyle=orthogonalEdgeStyle;rounded=0;orthogonalLoop=1;jettySize=auto;html=1;exitX=0.75;exitY=1;exitDx=0;exitDy=0;" edge="1" parent="1" source="G7huQXMR552MbbWvrnf8-10" target="G7huQXMR552MbbWvrnf8-34">
          <mxGeometry relative="1" as="geometry" />
        </mxCell>
        <mxCell id="G7huQXMR552MbbWvrnf8-10" value="CHECK_FLR" style="rounded=1;whiteSpace=wrap;html=1;" parent="1" vertex="1">
          <mxGeometry x="1372" y="-806" width="150" height="100" as="geometry" />
        </mxCell>
        <mxCell id="G7huQXMR552MbbWvrnf8-52" style="edgeStyle=orthogonalEdgeStyle;rounded=0;orthogonalLoop=1;jettySize=auto;html=1;exitX=1;exitY=0.5;exitDx=0;exitDy=0;" parent="1" source="G7huQXMR552MbbWvrnf8-11" edge="1">
          <mxGeometry relative="1" as="geometry">
            <mxPoint x="1877" y="-756.1304347826085" as="targetPoint" />
          </mxGeometry>
        </mxCell>
        <mxCell id="G7huQXMR552MbbWvrnf8-55" style="edgeStyle=orthogonalEdgeStyle;rounded=0;orthogonalLoop=1;jettySize=auto;html=1;exitX=0.25;exitY=1;exitDx=0;exitDy=0;" parent="1" source="G7huQXMR552MbbWvrnf8-11" edge="1">
          <mxGeometry relative="1" as="geometry">
            <mxPoint x="1767" y="-705.695652173913" as="targetPoint" />
          </mxGeometry>
        </mxCell>
        <mxCell id="G7huQXMR552MbbWvrnf8-11" value="INCORRECT" style="rounded=1;whiteSpace=wrap;html=1;" parent="1" vertex="1">
          <mxGeometry x="1657" y="-806" width="150" height="100" as="geometry" />
        </mxCell>
        <mxCell id="G7huQXMR552MbbWvrnf8-15" style="edgeStyle=orthogonalEdgeStyle;rounded=0;orthogonalLoop=1;jettySize=auto;html=1;exitX=1;exitY=0.5;exitDx=0;exitDy=0;entryX=0;entryY=0.5;entryDx=0;entryDy=0;" parent="1" source="G7huQXMR552MbbWvrnf8-12" target="G7huQXMR552MbbWvrnf8-1" edge="1">
          <mxGeometry relative="1" as="geometry" />
        </mxCell>
        <mxCell id="G7huQXMR552MbbWvrnf8-19" style="edgeStyle=orthogonalEdgeStyle;rounded=0;orthogonalLoop=1;jettySize=auto;html=1;entryX=0.5;entryY=1;entryDx=0;entryDy=0;" parent="1" target="G7huQXMR552MbbWvrnf8-12" edge="1">
          <mxGeometry relative="1" as="geometry">
            <mxPoint x="124.83333333333337" y="180" as="targetPoint" />
            <mxPoint x="125" y="180" as="sourcePoint" />
          </mxGeometry>
        </mxCell>
        <mxCell id="G7huQXMR552MbbWvrnf8-12" value="OFF&lt;br&gt;power_red = 0" style="rounded=1;whiteSpace=wrap;html=1;" parent="1" vertex="1">
          <mxGeometry x="50" y="30" width="150" height="100" as="geometry" />
        </mxCell>
        <mxCell id="G7huQXMR552MbbWvrnf8-13" style="edgeStyle=orthogonalEdgeStyle;rounded=0;orthogonalLoop=1;jettySize=auto;html=1;exitX=0.25;exitY=0;exitDx=0;exitDy=0;entryX=0.75;entryY=0;entryDx=0;entryDy=0;" parent="1" source="G7huQXMR552MbbWvrnf8-12" target="G7huQXMR552MbbWvrnf8-12" edge="1">
          <mxGeometry relative="1" as="geometry">
            <Array as="points">
              <mxPoint x="118" y="10" />
              <mxPoint x="193" y="10" />
            </Array>
          </mxGeometry>
        </mxCell>
        <mxCell id="G7huQXMR552MbbWvrnf8-14" value="power = 0" style="text;html=1;align=center;verticalAlign=middle;resizable=0;points=[];autosize=1;strokeColor=none;fillColor=none;" parent="1" vertex="1">
          <mxGeometry x="85" y="-20" width="80" height="30" as="geometry" />
        </mxCell>
        <mxCell id="G7huQXMR552MbbWvrnf8-16" value="power = 1" style="text;html=1;align=center;verticalAlign=middle;resizable=0;points=[];autosize=1;strokeColor=none;fillColor=none;" parent="1" vertex="1">
          <mxGeometry x="200" y="50" width="80" height="30" as="geometry" />
        </mxCell>
        <mxCell id="G7huQXMR552MbbWvrnf8-17" value="power = 1" style="text;html=1;align=center;verticalAlign=middle;resizable=0;points=[];autosize=1;strokeColor=none;fillColor=none;" parent="1" vertex="1">
          <mxGeometry x="270" y="-20" width="80" height="30" as="geometry" />
        </mxCell>
        <mxCell id="G7huQXMR552MbbWvrnf8-20" value="power = 0" style="text;html=1;align=center;verticalAlign=middle;resizable=0;points=[];autosize=1;strokeColor=none;fillColor=none;" parent="1" vertex="1">
          <mxGeometry x="45" y="140" width="80" height="30" as="geometry" />
        </mxCell>
        <mxCell id="G7huQXMR552MbbWvrnf8-24" value="id_valid&lt;br&gt;&amp;nbsp;" style="text;html=1;align=center;verticalAlign=middle;resizable=0;points=[];autosize=1;strokeColor=none;fillColor=none;" parent="1" vertex="1">
          <mxGeometry x="1432" y="-856" width="60" height="40" as="geometry" />
        </mxCell>
        <mxCell id="G7huQXMR552MbbWvrnf8-29" style="edgeStyle=orthogonalEdgeStyle;rounded=0;orthogonalLoop=1;jettySize=auto;html=1;exitX=0;exitY=0.75;exitDx=0;exitDy=0;entryX=0.75;entryY=0;entryDx=0;entryDy=0;" parent="1" source="G7huQXMR552MbbWvrnf8-26" target="G7huQXMR552MbbWvrnf8-10" edge="1">
          <mxGeometry relative="1" as="geometry" />
        </mxCell>
        <mxCell id="64Icla_Xy5hZy8p8XkMD-22" style="edgeStyle=orthogonalEdgeStyle;rounded=0;orthogonalLoop=1;jettySize=auto;html=1;exitX=0;exitY=0.25;exitDx=0;exitDy=0;entryX=0.25;entryY=0;entryDx=0;entryDy=0;" edge="1" parent="1" source="G7huQXMR552MbbWvrnf8-26" target="64Icla_Xy5hZy8p8XkMD-13">
          <mxGeometry relative="1" as="geometry" />
        </mxCell>
        <mxCell id="G7huQXMR552MbbWvrnf8-26" value="CHECK_STATE" style="rounded=1;whiteSpace=wrap;html=1;" parent="1" vertex="1">
          <mxGeometry x="1522" y="-946" width="150" height="100" as="geometry" />
        </mxCell>
        <mxCell id="G7huQXMR552MbbWvrnf8-31" style="edgeStyle=orthogonalEdgeStyle;rounded=0;orthogonalLoop=1;jettySize=auto;html=1;exitX=1;exitY=0.75;exitDx=0;exitDy=0;entryX=0.393;entryY=-0.005;entryDx=0;entryDy=0;entryPerimeter=0;" parent="1" source="G7huQXMR552MbbWvrnf8-26" target="G7huQXMR552MbbWvrnf8-11" edge="1">
          <mxGeometry relative="1" as="geometry" />
        </mxCell>
        <mxCell id="G7huQXMR552MbbWvrnf8-33" value="!id_valid" style="text;html=1;align=center;verticalAlign=middle;resizable=0;points=[];autosize=1;strokeColor=none;fillColor=none;" parent="1" vertex="1">
          <mxGeometry x="1707" y="-856" width="70" height="30" as="geometry" />
        </mxCell>
        <mxCell id="G7huQXMR552MbbWvrnf8-57" style="edgeStyle=orthogonalEdgeStyle;rounded=0;orthogonalLoop=1;jettySize=auto;html=1;exitX=1;exitY=0.5;exitDx=0;exitDy=0;" parent="1" source="G7huQXMR552MbbWvrnf8-34" edge="1">
          <mxGeometry relative="1" as="geometry">
            <mxPoint x="1818.45" y="-415.89565217391305" as="targetPoint" />
          </mxGeometry>
        </mxCell>
        <mxCell id="G7huQXMR552MbbWvrnf8-34" value="NO_SPACE" style="rounded=1;whiteSpace=wrap;html=1;" parent="1" vertex="1">
          <mxGeometry x="1601" y="-466.20000000000005" width="150" height="100" as="geometry" />
        </mxCell>
        <mxCell id="G7huQXMR552MbbWvrnf8-46" style="edgeStyle=orthogonalEdgeStyle;rounded=0;orthogonalLoop=1;jettySize=auto;html=1;exitX=0;exitY=0.5;exitDx=0;exitDy=0;" parent="1" source="G7huQXMR552MbbWvrnf8-38" edge="1">
          <mxGeometry relative="1" as="geometry">
            <mxPoint x="1249" y="-381.2" as="targetPoint" />
          </mxGeometry>
        </mxCell>
        <mxCell id="G7huQXMR552MbbWvrnf8-38" value="GRANTED_CHOSN_FLR" style="rounded=1;whiteSpace=wrap;html=1;" parent="1" vertex="1">
          <mxGeometry x="1334" y="-431.2" width="150" height="100" as="geometry" />
        </mxCell>
        <mxCell id="G7huQXMR552MbbWvrnf8-42" value="id_special&lt;br&gt;&amp;amp;&amp;amp;&lt;br&gt;special_flr_chosen" style="text;html=1;align=center;verticalAlign=middle;resizable=0;points=[];autosize=1;strokeColor=none;fillColor=none;" parent="1" vertex="1">
          <mxGeometry x="1245" y="-544" width="117" height="55" as="geometry" />
        </mxCell>
        <mxCell id="G7huQXMR552MbbWvrnf8-44" style="edgeStyle=orthogonalEdgeStyle;rounded=0;orthogonalLoop=1;jettySize=auto;html=1;exitX=0;exitY=0.5;exitDx=0;exitDy=0;entryX=0.158;entryY=-0.022;entryDx=0;entryDy=0;entryPerimeter=0;" parent="1" source="G7huQXMR552MbbWvrnf8-26" target="G7huQXMR552MbbWvrnf8-38" edge="1">
          <mxGeometry relative="1" as="geometry" />
        </mxCell>
        <mxCell id="G7huQXMR552MbbWvrnf8-47" value="INITIAL" style="text;html=1;align=center;verticalAlign=middle;resizable=0;points=[];autosize=1;strokeColor=none;fillColor=none;" parent="1" vertex="1">
          <mxGeometry x="1189" y="-396.2" width="60" height="30" as="geometry" />
        </mxCell>
        <mxCell id="G7huQXMR552MbbWvrnf8-48" value="t &amp;gt;= 3" style="text;html=1;align=center;verticalAlign=middle;resizable=0;points=[];autosize=1;strokeColor=none;fillColor=none;" parent="1" vertex="1">
          <mxGeometry x="1269" y="-413.2" width="50" height="30" as="geometry" />
        </mxCell>
        <mxCell id="G7huQXMR552MbbWvrnf8-49" style="edgeStyle=orthogonalEdgeStyle;rounded=0;orthogonalLoop=1;jettySize=auto;html=1;exitX=0.25;exitY=1;exitDx=0;exitDy=0;entryX=0.75;entryY=1;entryDx=0;entryDy=0;" parent="1" source="G7huQXMR552MbbWvrnf8-38" target="G7huQXMR552MbbWvrnf8-38" edge="1">
          <mxGeometry relative="1" as="geometry" />
        </mxCell>
        <mxCell id="G7huQXMR552MbbWvrnf8-50" value="t &amp;lt; 3" style="text;html=1;align=center;verticalAlign=middle;resizable=0;points=[];autosize=1;strokeColor=none;fillColor=none;" parent="1" vertex="1">
          <mxGeometry x="1379" y="-311.2" width="50" height="30" as="geometry" />
        </mxCell>
        <mxCell id="G7huQXMR552MbbWvrnf8-53" value="INITIAL" style="text;html=1;align=center;verticalAlign=middle;resizable=0;points=[];autosize=1;strokeColor=none;fillColor=none;" parent="1" vertex="1">
          <mxGeometry x="1872" y="-771" width="60" height="30" as="geometry" />
        </mxCell>
        <mxCell id="G7huQXMR552MbbWvrnf8-54" value="t &amp;gt;= 5" style="text;html=1;align=center;verticalAlign=middle;resizable=0;points=[];autosize=1;strokeColor=none;fillColor=none;" parent="1" vertex="1">
          <mxGeometry x="1807" y="-786" width="50" height="30" as="geometry" />
        </mxCell>
        <mxCell id="G7huQXMR552MbbWvrnf8-56" value="t &amp;lt; 5" style="text;html=1;align=center;verticalAlign=middle;resizable=0;points=[];autosize=1;strokeColor=none;fillColor=none;" parent="1" vertex="1">
          <mxGeometry x="1707" y="-688" width="50" height="30" as="geometry" />
        </mxCell>
        <mxCell id="G7huQXMR552MbbWvrnf8-58" value="INITIAL" style="text;html=1;align=center;verticalAlign=middle;resizable=0;points=[];autosize=1;strokeColor=none;fillColor=none;" parent="1" vertex="1">
          <mxGeometry x="1818.45" y="-431.20000000000005" width="60" height="30" as="geometry" />
        </mxCell>
        <mxCell id="G7huQXMR552MbbWvrnf8-59" value="t&amp;gt;= x" style="text;html=1;align=center;verticalAlign=middle;resizable=0;points=[];autosize=1;strokeColor=none;fillColor=none;" parent="1" vertex="1">
          <mxGeometry x="1763.45" y="-448.20000000000005" width="50" height="30" as="geometry" />
        </mxCell>
        <mxCell id="G7huQXMR552MbbWvrnf8-60" style="edgeStyle=orthogonalEdgeStyle;rounded=0;orthogonalLoop=1;jettySize=auto;html=1;exitX=0.25;exitY=1;exitDx=0;exitDy=0;entryX=0.75;entryY=1;entryDx=0;entryDy=0;" parent="1" source="G7huQXMR552MbbWvrnf8-34" target="G7huQXMR552MbbWvrnf8-34" edge="1">
          <mxGeometry relative="1" as="geometry" />
        </mxCell>
        <mxCell id="G7huQXMR552MbbWvrnf8-61" value="t &amp;lt; x" style="text;html=1;align=center;verticalAlign=middle;resizable=0;points=[];autosize=1;strokeColor=none;fillColor=none;" parent="1" vertex="1">
          <mxGeometry x="1658.45" y="-349" width="50" height="30" as="geometry" />
        </mxCell>
        <mxCell id="G7huQXMR552MbbWvrnf8-64" value="key_pressed&lt;br&gt;AND&lt;br&gt;key = esc" style="text;html=1;align=center;verticalAlign=middle;resizable=0;points=[];autosize=1;strokeColor=none;fillColor=none;" parent="1" vertex="1">
          <mxGeometry x="220" y="145" width="90" height="60" as="geometry" />
        </mxCell>
        <mxCell id="RGv7OVUdBosff1D2KzXT-12" style="edgeStyle=orthogonalEdgeStyle;rounded=0;orthogonalLoop=1;jettySize=auto;html=1;exitX=1;exitY=0.75;exitDx=0;exitDy=0;entryX=0.666;entryY=0.982;entryDx=0;entryDy=0;entryPerimeter=0;" parent="1" source="G7huQXMR552MbbWvrnf8-67" target="G7huQXMR552MbbWvrnf8-3" edge="1">
          <mxGeometry relative="1" as="geometry">
            <mxPoint x="660" y="170" as="targetPoint" />
            <Array as="points">
              <mxPoint x="660" y="305" />
            </Array>
          </mxGeometry>
        </mxCell>
        <mxCell id="G7huQXMR552MbbWvrnf8-67" value="EXIT_FSM&lt;br&gt;LCD_State = 0" style="rounded=1;whiteSpace=wrap;html=1;" parent="1" vertex="1">
          <mxGeometry x="270" y="230" width="150" height="100" as="geometry" />
        </mxCell>
        <mxCell id="G7huQXMR552MbbWvrnf8-70" value="t &amp;gt;= 3" style="text;html=1;align=center;verticalAlign=middle;resizable=0;points=[];autosize=1;strokeColor=none;fillColor=none;" parent="1" vertex="1">
          <mxGeometry x="380" y="175" width="50" height="30" as="geometry" />
        </mxCell>
        <mxCell id="RGv7OVUdBosff1D2KzXT-5" style="edgeStyle=orthogonalEdgeStyle;rounded=0;orthogonalLoop=1;jettySize=auto;html=1;exitX=0.75;exitY=1;exitDx=0;exitDy=0;entryX=1;entryY=0;entryDx=0;entryDy=0;" parent="1" source="G7huQXMR552MbbWvrnf8-75" target="G7huQXMR552MbbWvrnf8-1" edge="1">
          <mxGeometry relative="1" as="geometry">
            <Array as="points">
              <mxPoint x="420" y="-110" />
              <mxPoint x="420" y="30" />
            </Array>
          </mxGeometry>
        </mxCell>
        <mxCell id="RGv7OVUdBosff1D2KzXT-9" style="edgeStyle=orthogonalEdgeStyle;rounded=0;orthogonalLoop=1;jettySize=auto;html=1;exitX=1;exitY=0.75;exitDx=0;exitDy=0;entryX=0.25;entryY=0;entryDx=0;entryDy=0;" parent="1" source="G7huQXMR552MbbWvrnf8-75" target="G7huQXMR552MbbWvrnf8-3" edge="1">
          <mxGeometry relative="1" as="geometry" />
        </mxCell>
        <mxCell id="G7huQXMR552MbbWvrnf8-75" value="ADMIN_FSM&lt;br&gt;LCD_State = 0" style="rounded=1;whiteSpace=wrap;html=1;" parent="1" vertex="1">
          <mxGeometry x="310" y="-210" width="150" height="100" as="geometry" />
        </mxCell>
        <mxCell id="RGv7OVUdBosff1D2KzXT-6" style="edgeStyle=orthogonalEdgeStyle;rounded=0;orthogonalLoop=1;jettySize=auto;html=1;exitX=1;exitY=0.5;exitDx=0;exitDy=0;entryX=-0.014;entryY=0.41;entryDx=0;entryDy=0;entryPerimeter=0;" parent="1" edge="1">
          <mxGeometry relative="1" as="geometry">
            <mxPoint x="425" y="105" as="sourcePoint" />
            <mxPoint x="557.9000000000001" y="105.99999999999977" as="targetPoint" />
            <Array as="points">
              <mxPoint x="425" y="106" />
            </Array>
          </mxGeometry>
        </mxCell>
        <mxCell id="RGv7OVUdBosff1D2KzXT-15" value="NORMAL_FSM" style="rounded=1;whiteSpace=wrap;html=1;" parent="1" vertex="1">
          <mxGeometry x="816" y="-110" width="150" height="100" as="geometry" />
        </mxCell>
        <mxCell id="RGv7OVUdBosff1D2KzXT-20" value="key_pressed&lt;br&gt;AND&lt;br&gt;key = ctrl_a" style="text;html=1;align=center;verticalAlign=middle;resizable=0;points=[];autosize=1;strokeColor=none;fillColor=none;" parent="1" vertex="1">
          <mxGeometry x="285" y="-100" width="90" height="60" as="geometry" />
        </mxCell>
        <mxCell id="RGv7OVUdBosff1D2KzXT-21" value="key_pressed&lt;br&gt;AND&lt;br&gt;key != (ctrl_a or esc)" style="text;html=1;align=center;verticalAlign=middle;resizable=0;points=[];autosize=1;strokeColor=none;fillColor=none;" parent="1" vertex="1">
          <mxGeometry x="430" y="105" width="130" height="60" as="geometry" />
        </mxCell>
        <mxCell id="RGv7OVUdBosff1D2KzXT-22" style="edgeStyle=orthogonalEdgeStyle;rounded=0;orthogonalLoop=1;jettySize=auto;html=1;exitX=0.75;exitY=0;exitDx=0;exitDy=0;entryX=0.712;entryY=1.043;entryDx=0;entryDy=0;entryPerimeter=0;" parent="1" source="G7huQXMR552MbbWvrnf8-67" target="G7huQXMR552MbbWvrnf8-1" edge="1">
          <mxGeometry relative="1" as="geometry" />
        </mxCell>
        <mxCell id="RGv7OVUdBosff1D2KzXT-23" style="edgeStyle=orthogonalEdgeStyle;rounded=0;orthogonalLoop=1;jettySize=auto;html=1;exitX=0.75;exitY=1;exitDx=0;exitDy=0;entryX=1;entryY=0.75;entryDx=0;entryDy=0;" parent="1" source="G7huQXMR552MbbWvrnf8-3" target="G7huQXMR552MbbWvrnf8-3" edge="1">
          <mxGeometry relative="1" as="geometry" />
        </mxCell>
        <mxCell id="RGv7OVUdBosff1D2KzXT-24" value="number_counter == 7&lt;br&gt;AND&lt;br&gt;flg_inp = 0" style="text;html=1;align=center;verticalAlign=middle;resizable=0;points=[];autosize=1;strokeColor=none;fillColor=none;" parent="1" vertex="1">
          <mxGeometry x="740" y="30" width="140" height="60" as="geometry" />
        </mxCell>
        <mxCell id="RGv7OVUdBosff1D2KzXT-25" value="t &amp;gt;= 3" style="text;html=1;align=center;verticalAlign=middle;resizable=0;points=[];autosize=1;strokeColor=none;fillColor=none;" parent="1" vertex="1">
          <mxGeometry x="470" y="30" width="50" height="30" as="geometry" />
        </mxCell>
        <mxCell id="RGv7OVUdBosff1D2KzXT-30" value="number_counter == 7&lt;br&gt;AND&lt;br&gt;flg_inp = 1" style="text;html=1;align=center;verticalAlign=middle;resizable=0;points=[];autosize=1;strokeColor=none;fillColor=none;" parent="1" vertex="1">
          <mxGeometry x="660" y="-180" width="140" height="60" as="geometry" />
        </mxCell>
        <mxCell id="RGv7OVUdBosff1D2KzXT-31" value="number_counter == 7&lt;br&gt;AND&lt;br&gt;flg_inp = 2" style="text;html=1;align=center;verticalAlign=middle;resizable=0;points=[];autosize=1;strokeColor=none;fillColor=none;" parent="1" vertex="1">
          <mxGeometry x="460" y="190" width="140" height="60" as="geometry" />
        </mxCell>
        <mxCell id="64Icla_Xy5hZy8p8XkMD-6" value="chosen_flr_full&lt;br&gt;&amp;amp;&amp;amp;&lt;br&gt;!alternative_flr_full" style="text;html=1;align=center;verticalAlign=middle;resizable=0;points=[];autosize=1;strokeColor=none;fillColor=none;" vertex="1" parent="1">
          <mxGeometry x="1167" y="-722" width="115" height="55" as="geometry" />
        </mxCell>
        <mxCell id="64Icla_Xy5hZy8p8XkMD-12" value="!chosen_flr_full" style="text;html=1;align=center;verticalAlign=middle;resizable=0;points=[];autosize=1;strokeColor=none;fillColor=none;" vertex="1" parent="1">
          <mxGeometry x="1413" y="-492.2" width="99" height="26" as="geometry" />
        </mxCell>
        <mxCell id="64Icla_Xy5hZy8p8XkMD-17" style="edgeStyle=orthogonalEdgeStyle;rounded=0;orthogonalLoop=1;jettySize=auto;html=1;exitX=0;exitY=0.5;exitDx=0;exitDy=0;" edge="1" parent="1" source="64Icla_Xy5hZy8p8XkMD-13">
          <mxGeometry relative="1" as="geometry">
            <mxPoint x="916" y="-591" as="targetPoint" />
          </mxGeometry>
        </mxCell>
        <mxCell id="64Icla_Xy5hZy8p8XkMD-13" value="GRANTED_ALT_FLR" style="rounded=1;whiteSpace=wrap;html=1;" vertex="1" parent="1">
          <mxGeometry x="1008" y="-641" width="150" height="100" as="geometry" />
        </mxCell>
        <mxCell id="64Icla_Xy5hZy8p8XkMD-15" value="INITIAL" style="text;html=1;align=center;verticalAlign=middle;resizable=0;points=[];autosize=1;strokeColor=none;fillColor=none;" vertex="1" parent="1">
          <mxGeometry x="852" y="-606" width="60" height="30" as="geometry" />
        </mxCell>
        <mxCell id="64Icla_Xy5hZy8p8XkMD-16" value="t &amp;gt;= 3" style="text;html=1;align=center;verticalAlign=middle;resizable=0;points=[];autosize=1;strokeColor=none;fillColor=none;" vertex="1" parent="1">
          <mxGeometry x="939" y="-619" width="50" height="30" as="geometry" />
        </mxCell>
        <mxCell id="64Icla_Xy5hZy8p8XkMD-20" value="chosen_flr_full&lt;br&gt;&amp;amp;&amp;amp;&lt;br&gt;alternative_flr_full" style="text;html=1;align=center;verticalAlign=middle;resizable=0;points=[];autosize=1;strokeColor=none;fillColor=none;" vertex="1" parent="1">
          <mxGeometry x="1579" y="-650" width="112" height="55" as="geometry" />
        </mxCell>
        <mxCell id="64Icla_Xy5hZy8p8XkMD-23" value="id_special&lt;br&gt;&amp;amp;&amp;amp;&lt;br&gt;!special_flr_chosen" style="text;html=1;align=center;verticalAlign=middle;resizable=0;points=[];autosize=1;strokeColor=none;fillColor=none;" vertex="1" parent="1">
          <mxGeometry x="1125" y="-967" width="121" height="55" as="geometry" />
        </mxCell>
        <mxCell id="64Icla_Xy5hZy8p8XkMD-24" style="edgeStyle=orthogonalEdgeStyle;rounded=0;orthogonalLoop=1;jettySize=auto;html=1;entryX=0.75;entryY=1;entryDx=0;entryDy=0;" edge="1" parent="1">
          <mxGeometry relative="1" as="geometry">
            <mxPoint x="1045" y="-539" as="sourcePoint" />
            <mxPoint x="1124.47" y="-538.8" as="targetPoint" />
            <Array as="points">
              <mxPoint x="1045" y="-519" />
              <mxPoint x="1124" y="-519" />
            </Array>
          </mxGeometry>
        </mxCell>
        <mxCell id="64Icla_Xy5hZy8p8XkMD-25" value="t &amp;lt; 3" style="text;html=1;align=center;verticalAlign=middle;resizable=0;points=[];autosize=1;strokeColor=none;fillColor=none;" vertex="1" parent="1">
          <mxGeometry x="1056.47" y="-519" width="50" height="30" as="geometry" />
        </mxCell>
        <mxCell id="64Icla_Xy5hZy8p8XkMD-32" style="edgeStyle=orthogonalEdgeStyle;rounded=0;orthogonalLoop=1;jettySize=auto;html=1;exitX=0;exitY=0.5;exitDx=0;exitDy=0;entryX=0.5;entryY=0;entryDx=0;entryDy=0;" edge="1" parent="1" source="64Icla_Xy5hZy8p8XkMD-28" target="64Icla_Xy5hZy8p8XkMD-29">
          <mxGeometry relative="1" as="geometry" />
        </mxCell>
        <mxCell id="64Icla_Xy5hZy8p8XkMD-33" style="edgeStyle=orthogonalEdgeStyle;rounded=0;orthogonalLoop=1;jettySize=auto;html=1;exitX=1;exitY=0.5;exitDx=0;exitDy=0;entryX=0.5;entryY=0;entryDx=0;entryDy=0;" edge="1" parent="1" source="64Icla_Xy5hZy8p8XkMD-28" target="64Icla_Xy5hZy8p8XkMD-43">
          <mxGeometry relative="1" as="geometry">
            <mxPoint x="1803.5" y="359" as="targetPoint" />
          </mxGeometry>
        </mxCell>
        <mxCell id="64Icla_Xy5hZy8p8XkMD-28" value="Check_State" style="rounded=1;whiteSpace=wrap;html=1;" vertex="1" parent="1">
          <mxGeometry x="1465" y="165" width="150" height="100" as="geometry" />
        </mxCell>
        <mxCell id="64Icla_Xy5hZy8p8XkMD-29" value="Correct" style="rounded=1;whiteSpace=wrap;html=1;" vertex="1" parent="1">
          <mxGeometry x="1228.5" y="365" width="150" height="100" as="geometry" />
        </mxCell>
        <mxCell id="64Icla_Xy5hZy8p8XkMD-34" value="id_valid" style="text;html=1;align=center;verticalAlign=middle;resizable=0;points=[];autosize=1;strokeColor=none;fillColor=none;" vertex="1" parent="1">
          <mxGeometry x="1316" y="179" width="59" height="26" as="geometry" />
        </mxCell>
        <mxCell id="64Icla_Xy5hZy8p8XkMD-35" value="!id_valid" style="text;html=1;align=center;verticalAlign=middle;resizable=0;points=[];autosize=1;strokeColor=none;fillColor=none;" vertex="1" parent="1">
          <mxGeometry x="1676" y="175" width="62" height="26" as="geometry" />
        </mxCell>
        <mxCell id="64Icla_Xy5hZy8p8XkMD-37" style="edgeStyle=orthogonalEdgeStyle;rounded=0;orthogonalLoop=1;jettySize=auto;html=1;" edge="1" parent="1" source="64Icla_Xy5hZy8p8XkMD-36" target="64Icla_Xy5hZy8p8XkMD-28">
          <mxGeometry relative="1" as="geometry" />
        </mxCell>
        <mxCell id="64Icla_Xy5hZy8p8XkMD-36" value="number_counter == 7&lt;br&gt;AND&lt;br&gt;flg_inp = 2" style="text;html=1;align=center;verticalAlign=middle;resizable=0;points=[];autosize=1;strokeColor=none;fillColor=none;" vertex="1" parent="1">
          <mxGeometry x="1470" width="140" height="60" as="geometry" />
        </mxCell>
        <mxCell id="64Icla_Xy5hZy8p8XkMD-41" style="edgeStyle=orthogonalEdgeStyle;rounded=0;orthogonalLoop=1;jettySize=auto;html=1;exitX=1;exitY=0.5;exitDx=0;exitDy=0;" edge="1" parent="1" source="64Icla_Xy5hZy8p8XkMD-43">
          <mxGeometry relative="1" as="geometry">
            <mxPoint x="1945" y="414.8695652173915" as="targetPoint" />
          </mxGeometry>
        </mxCell>
        <mxCell id="64Icla_Xy5hZy8p8XkMD-42" style="edgeStyle=orthogonalEdgeStyle;rounded=0;orthogonalLoop=1;jettySize=auto;html=1;exitX=0.25;exitY=1;exitDx=0;exitDy=0;" edge="1" parent="1" source="64Icla_Xy5hZy8p8XkMD-43">
          <mxGeometry relative="1" as="geometry">
            <mxPoint x="1835" y="465.304347826087" as="targetPoint" />
          </mxGeometry>
        </mxCell>
        <mxCell id="64Icla_Xy5hZy8p8XkMD-43" value="INCORRECT" style="rounded=1;whiteSpace=wrap;html=1;" vertex="1" parent="1">
          <mxGeometry x="1725" y="365" width="150" height="100" as="geometry" />
        </mxCell>
        <mxCell id="64Icla_Xy5hZy8p8XkMD-44" value="INITIAL" style="text;html=1;align=center;verticalAlign=middle;resizable=0;points=[];autosize=1;strokeColor=none;fillColor=none;" vertex="1" parent="1">
          <mxGeometry x="1940" y="400" width="60" height="30" as="geometry" />
        </mxCell>
        <mxCell id="64Icla_Xy5hZy8p8XkMD-45" value="t &amp;gt;= 5" style="text;html=1;align=center;verticalAlign=middle;resizable=0;points=[];autosize=1;strokeColor=none;fillColor=none;" vertex="1" parent="1">
          <mxGeometry x="1875" y="385" width="50" height="30" as="geometry" />
        </mxCell>
        <mxCell id="64Icla_Xy5hZy8p8XkMD-46" value="t &amp;lt; 5" style="text;html=1;align=center;verticalAlign=middle;resizable=0;points=[];autosize=1;strokeColor=none;fillColor=none;" vertex="1" parent="1">
          <mxGeometry x="1775" y="483" width="50" height="30" as="geometry" />
        </mxCell>
        <mxCell id="64Icla_Xy5hZy8p8XkMD-47" style="edgeStyle=orthogonalEdgeStyle;rounded=0;orthogonalLoop=1;jettySize=auto;html=1;exitX=0;exitY=0.5;exitDx=0;exitDy=0;" edge="1" parent="1">
          <mxGeometry relative="1" as="geometry">
            <mxPoint x="1136.5" y="415" as="targetPoint" />
            <mxPoint x="1228.5" y="415" as="sourcePoint" />
          </mxGeometry>
        </mxCell>
        <mxCell id="64Icla_Xy5hZy8p8XkMD-48" value="INITIAL" style="text;html=1;align=center;verticalAlign=middle;resizable=0;points=[];autosize=1;strokeColor=none;fillColor=none;" vertex="1" parent="1">
          <mxGeometry x="1072.5" y="400" width="60" height="30" as="geometry" />
        </mxCell>
        <mxCell id="64Icla_Xy5hZy8p8XkMD-49" value="t &amp;gt;= 3" style="text;html=1;align=center;verticalAlign=middle;resizable=0;points=[];autosize=1;strokeColor=none;fillColor=none;" vertex="1" parent="1">
          <mxGeometry x="1159.5" y="387" width="50" height="30" as="geometry" />
        </mxCell>
        <mxCell id="64Icla_Xy5hZy8p8XkMD-50" style="edgeStyle=orthogonalEdgeStyle;rounded=0;orthogonalLoop=1;jettySize=auto;html=1;entryX=0.75;entryY=1;entryDx=0;entryDy=0;" edge="1" parent="1">
          <mxGeometry relative="1" as="geometry">
            <mxPoint x="1263.75" y="465" as="sourcePoint" />
            <mxPoint x="1343.22" y="465.20000000000005" as="targetPoint" />
            <Array as="points">
              <mxPoint x="1263.75" y="485" />
              <mxPoint x="1342.75" y="485" />
            </Array>
          </mxGeometry>
        </mxCell>
        <mxCell id="64Icla_Xy5hZy8p8XkMD-51" value="t &amp;lt; 3" style="text;html=1;align=center;verticalAlign=middle;resizable=0;points=[];autosize=1;strokeColor=none;fillColor=none;" vertex="1" parent="1">
          <mxGeometry x="1275.22" y="485" width="50" height="30" as="geometry" />
        </mxCell>
        <mxCell id="64Icla_Xy5hZy8p8XkMD-52" value="Exit_FSM" style="text;html=1;align=center;verticalAlign=middle;resizable=0;points=[];autosize=1;strokeColor=none;fillColor=none;" vertex="1" parent="1">
          <mxGeometry x="1505" y="-43" width="70" height="26" as="geometry" />
        </mxCell>
        <mxCell id="64Icla_Xy5hZy8p8XkMD-53" value="NORMAL_FSM" style="text;html=1;align=center;verticalAlign=middle;resizable=0;points=[];autosize=1;strokeColor=none;fillColor=none;" vertex="1" parent="1">
          <mxGeometry x="1546.5" y="-1204" width="101" height="26" as="geometry" />
        </mxCell>
        <mxCell id="64Icla_Xy5hZy8p8XkMD-54" style="edgeStyle=orthogonalEdgeStyle;rounded=0;orthogonalLoop=1;jettySize=auto;html=1;" edge="1" parent="1">
          <mxGeometry relative="1" as="geometry">
            <mxPoint x="1596.6" y="-1051" as="sourcePoint" />
            <mxPoint x="1596.6" y="-946" as="targetPoint" />
          </mxGeometry>
        </mxCell>
        <mxCell id="64Icla_Xy5hZy8p8XkMD-55" value="number_counter == 7&lt;br&gt;AND&lt;br&gt;flg_inp = 0" style="text;html=1;align=center;verticalAlign=middle;resizable=0;points=[];autosize=1;strokeColor=none;fillColor=none;" vertex="1" parent="1">
          <mxGeometry x="1527" y="-1123" width="140" height="60" as="geometry" />
        </mxCell>
        <mxCell id="64Icla_Xy5hZy8p8XkMD-56" value="ADMIN_FSM" style="text;html=1;align=center;verticalAlign=middle;resizable=0;points=[];autosize=1;strokeColor=none;fillColor=none;" vertex="1" parent="1">
          <mxGeometry x="-506" y="-1330" width="89" height="26" as="geometry" />
        </mxCell>
        <mxCell id="64Icla_Xy5hZy8p8XkMD-57" style="edgeStyle=orthogonalEdgeStyle;rounded=0;orthogonalLoop=1;jettySize=auto;html=1;" edge="1" parent="1">
          <mxGeometry relative="1" as="geometry">
            <mxPoint x="-468" y="-1182" as="sourcePoint" />
            <mxPoint x="-468" y="-1077" as="targetPoint" />
          </mxGeometry>
        </mxCell>
        <mxCell id="64Icla_Xy5hZy8p8XkMD-58" value="CHECK_STATE" style="rounded=1;whiteSpace=wrap;html=1;" vertex="1" parent="1">
          <mxGeometry x="-542" y="-1076" width="150" height="100" as="geometry" />
        </mxCell>
        <mxCell id="64Icla_Xy5hZy8p8XkMD-59" value="key_pressed&lt;br&gt;AND&lt;br&gt;key = ctrl_a" style="text;html=1;align=center;verticalAlign=middle;resizable=0;points=[];autosize=1;strokeColor=none;fillColor=none;" vertex="1" parent="1">
          <mxGeometry x="-512" y="-1258" width="90" height="60" as="geometry" />
        </mxCell>
        <mxCell id="64Icla_Xy5hZy8p8XkMD-60" style="edgeStyle=orthogonalEdgeStyle;rounded=0;orthogonalLoop=1;jettySize=auto;html=1;exitX=0;exitY=0.5;exitDx=0;exitDy=0;entryX=0.5;entryY=0;entryDx=0;entryDy=0;" edge="1" parent="1" target="64Icla_Xy5hZy8p8XkMD-62">
          <mxGeometry relative="1" as="geometry">
            <mxPoint x="-542" y="-1031" as="sourcePoint" />
          </mxGeometry>
        </mxCell>
        <mxCell id="64Icla_Xy5hZy8p8XkMD-61" style="edgeStyle=orthogonalEdgeStyle;rounded=0;orthogonalLoop=1;jettySize=auto;html=1;exitX=1;exitY=0.5;exitDx=0;exitDy=0;entryX=0.5;entryY=0;entryDx=0;entryDy=0;" edge="1" parent="1" target="64Icla_Xy5hZy8p8XkMD-69">
          <mxGeometry relative="1" as="geometry">
            <mxPoint x="-392" y="-1031" as="sourcePoint" />
            <mxPoint x="-207" y="-881" as="targetPoint" />
          </mxGeometry>
        </mxCell>
        <mxCell id="64Icla_Xy5hZy8p8XkMD-74" style="edgeStyle=orthogonalEdgeStyle;rounded=0;orthogonalLoop=1;jettySize=auto;html=1;" edge="1" parent="1" source="64Icla_Xy5hZy8p8XkMD-62">
          <mxGeometry relative="1" as="geometry">
            <mxPoint x="-912.7142813546317" y="-659.5713936941963" as="targetPoint" />
          </mxGeometry>
        </mxCell>
        <mxCell id="64Icla_Xy5hZy8p8XkMD-62" value="Correct" style="rounded=1;whiteSpace=wrap;html=1;" vertex="1" parent="1">
          <mxGeometry x="-778.5" y="-881" width="150" height="100" as="geometry" />
        </mxCell>
        <mxCell id="64Icla_Xy5hZy8p8XkMD-63" value="adminId_valid" style="text;html=1;align=center;verticalAlign=middle;resizable=0;points=[];autosize=1;strokeColor=none;fillColor=none;" vertex="1" parent="1">
          <mxGeometry x="-707" y="-1067" width="92" height="26" as="geometry" />
        </mxCell>
        <mxCell id="64Icla_Xy5hZy8p8XkMD-66" value="!adminId_valid" style="text;html=1;align=center;verticalAlign=middle;resizable=0;points=[];autosize=1;strokeColor=none;fillColor=none;" vertex="1" parent="1">
          <mxGeometry x="-347" y="-1067" width="95" height="26" as="geometry" />
        </mxCell>
        <mxCell id="64Icla_Xy5hZy8p8XkMD-67" style="edgeStyle=orthogonalEdgeStyle;rounded=0;orthogonalLoop=1;jettySize=auto;html=1;exitX=1;exitY=0.5;exitDx=0;exitDy=0;" edge="1" parent="1" source="64Icla_Xy5hZy8p8XkMD-69">
          <mxGeometry relative="1" as="geometry">
            <mxPoint x="-64" y="-828.1304347826085" as="targetPoint" />
          </mxGeometry>
        </mxCell>
        <mxCell id="64Icla_Xy5hZy8p8XkMD-68" style="edgeStyle=orthogonalEdgeStyle;rounded=0;orthogonalLoop=1;jettySize=auto;html=1;exitX=0.25;exitY=1;exitDx=0;exitDy=0;" edge="1" parent="1" source="64Icla_Xy5hZy8p8XkMD-69">
          <mxGeometry relative="1" as="geometry">
            <mxPoint x="-174" y="-777.695652173913" as="targetPoint" />
          </mxGeometry>
        </mxCell>
        <mxCell id="64Icla_Xy5hZy8p8XkMD-69" value="INCORRECT" style="rounded=1;whiteSpace=wrap;html=1;" vertex="1" parent="1">
          <mxGeometry x="-284" y="-878" width="150" height="100" as="geometry" />
        </mxCell>
        <mxCell id="64Icla_Xy5hZy8p8XkMD-70" value="t &amp;gt;= 5" style="text;html=1;align=center;verticalAlign=middle;resizable=0;points=[];autosize=1;strokeColor=none;fillColor=none;" vertex="1" parent="1">
          <mxGeometry x="-134" y="-858" width="50" height="30" as="geometry" />
        </mxCell>
        <mxCell id="64Icla_Xy5hZy8p8XkMD-71" value="t &amp;lt; 5" style="text;html=1;align=center;verticalAlign=middle;resizable=0;points=[];autosize=1;strokeColor=none;fillColor=none;" vertex="1" parent="1">
          <mxGeometry x="-234" y="-760" width="50" height="30" as="geometry" />
        </mxCell>
        <mxCell id="64Icla_Xy5hZy8p8XkMD-72" style="edgeStyle=orthogonalEdgeStyle;rounded=0;orthogonalLoop=1;jettySize=auto;html=1;exitX=0.25;exitY=1;exitDx=0;exitDy=0;entryX=0.75;entryY=1;entryDx=0;entryDy=0;" edge="1" parent="1" source="64Icla_Xy5hZy8p8XkMD-62" target="64Icla_Xy5hZy8p8XkMD-62">
          <mxGeometry relative="1" as="geometry" />
        </mxCell>
        <mxCell id="64Icla_Xy5hZy8p8XkMD-73" value="t&amp;lt;2" style="text;html=1;align=center;verticalAlign=middle;resizable=0;points=[];autosize=1;strokeColor=none;fillColor=none;" vertex="1" parent="1">
          <mxGeometry x="-721" y="-755" width="35" height="26" as="geometry" />
        </mxCell>
        <mxCell id="64Icla_Xy5hZy8p8XkMD-76" style="edgeStyle=orthogonalEdgeStyle;rounded=0;orthogonalLoop=1;jettySize=auto;html=1;entryX=0.5;entryY=0;entryDx=0;entryDy=0;" edge="1" parent="1" source="64Icla_Xy5hZy8p8XkMD-75" target="64Icla_Xy5hZy8p8XkMD-78">
          <mxGeometry relative="1" as="geometry">
            <mxPoint x="-1097.8571254185267" y="-474.42844063895086" as="targetPoint" />
          </mxGeometry>
        </mxCell>
        <mxCell id="64Icla_Xy5hZy8p8XkMD-77" style="edgeStyle=orthogonalEdgeStyle;rounded=0;orthogonalLoop=1;jettySize=auto;html=1;entryX=0.5;entryY=0;entryDx=0;entryDy=0;" edge="1" parent="1" source="64Icla_Xy5hZy8p8XkMD-75" target="64Icla_Xy5hZy8p8XkMD-79">
          <mxGeometry relative="1" as="geometry">
            <mxPoint x="-729.8571166992188" y="-481.28565325055797" as="targetPoint" />
          </mxGeometry>
        </mxCell>
        <mxCell id="64Icla_Xy5hZy8p8XkMD-75" value="ChooseMode" style="rounded=1;whiteSpace=wrap;html=1;" vertex="1" parent="1">
          <mxGeometry x="-985" y="-658" width="150" height="100" as="geometry" />
        </mxCell>
        <mxCell id="64Icla_Xy5hZy8p8XkMD-78" value="OpenGate" style="rounded=1;whiteSpace=wrap;html=1;" vertex="1" parent="1">
          <mxGeometry x="-1172" y="-473" width="150" height="100" as="geometry" />
        </mxCell>
        <mxCell id="64Icla_Xy5hZy8p8XkMD-83" style="edgeStyle=orthogonalEdgeStyle;rounded=0;orthogonalLoop=1;jettySize=auto;html=1;exitX=0.5;exitY=1;exitDx=0;exitDy=0;" edge="1" parent="1" source="64Icla_Xy5hZy8p8XkMD-79">
          <mxGeometry relative="1" as="geometry">
            <mxPoint x="-731" y="-306.42864990234375" as="targetPoint" />
          </mxGeometry>
        </mxCell>
        <mxCell id="64Icla_Xy5hZy8p8XkMD-79" value="Restrict&lt;br&gt;Flg_inp = 3" style="rounded=1;whiteSpace=wrap;html=1;" vertex="1" parent="1">
          <mxGeometry x="-806" y="-480.2" width="150" height="100" as="geometry" />
        </mxCell>
        <mxCell id="64Icla_Xy5hZy8p8XkMD-80" value="KeyPressed &amp;amp;&amp;amp; Key == 1" style="text;html=1;align=center;verticalAlign=middle;resizable=0;points=[];autosize=1;strokeColor=none;fillColor=none;" vertex="1" parent="1">
          <mxGeometry x="-1159" y="-649.5" width="153" height="26" as="geometry" />
        </mxCell>
        <mxCell id="64Icla_Xy5hZy8p8XkMD-81" value="KeyPressed &amp;amp;&amp;amp; Key == 2" style="text;html=1;align=center;verticalAlign=middle;resizable=0;points=[];autosize=1;strokeColor=none;fillColor=none;" vertex="1" parent="1">
          <mxGeometry x="-823" y="-646" width="153" height="26" as="geometry" />
        </mxCell>
        <mxCell id="64Icla_Xy5hZy8p8XkMD-84" value="INPUTTING" style="text;html=1;align=center;verticalAlign=middle;resizable=0;points=[];autosize=1;strokeColor=none;fillColor=none;" vertex="1" parent="1">
          <mxGeometry x="-772.5" y="-281.2" width="83" height="26" as="geometry" />
        </mxCell>
        <mxCell id="64Icla_Xy5hZy8p8XkMD-86" style="edgeStyle=orthogonalEdgeStyle;rounded=0;orthogonalLoop=1;jettySize=auto;html=1;exitX=0;exitY=0.5;exitDx=0;exitDy=0;entryX=0.5;entryY=0;entryDx=0;entryDy=0;" edge="1" parent="1" source="64Icla_Xy5hZy8p8XkMD-88" target="64Icla_Xy5hZy8p8XkMD-89">
          <mxGeometry relative="1" as="geometry" />
        </mxCell>
        <mxCell id="64Icla_Xy5hZy8p8XkMD-87" style="edgeStyle=orthogonalEdgeStyle;rounded=0;orthogonalLoop=1;jettySize=auto;html=1;exitX=1;exitY=0.5;exitDx=0;exitDy=0;entryX=0.5;entryY=0;entryDx=0;entryDy=0;" edge="1" parent="1" source="64Icla_Xy5hZy8p8XkMD-88" target="64Icla_Xy5hZy8p8XkMD-94">
          <mxGeometry relative="1" as="geometry">
            <mxPoint x="-646.75" y="80" as="targetPoint" />
          </mxGeometry>
        </mxCell>
        <mxCell id="64Icla_Xy5hZy8p8XkMD-88" value="CHECK_STATE2" style="rounded=1;whiteSpace=wrap;html=1;" vertex="1" parent="1">
          <mxGeometry x="-985.25" y="-114" width="150" height="100" as="geometry" />
        </mxCell>
        <mxCell id="64Icla_Xy5hZy8p8XkMD-89" value="Correct" style="rounded=1;whiteSpace=wrap;html=1;" vertex="1" parent="1">
          <mxGeometry x="-1221.75" y="86" width="150" height="100" as="geometry" />
        </mxCell>
        <mxCell id="64Icla_Xy5hZy8p8XkMD-90" value="id_valid" style="text;html=1;align=center;verticalAlign=middle;resizable=0;points=[];autosize=1;strokeColor=none;fillColor=none;" vertex="1" parent="1">
          <mxGeometry x="-1134.25" y="-100" width="59" height="26" as="geometry" />
        </mxCell>
        <mxCell id="64Icla_Xy5hZy8p8XkMD-91" value="!id_valid" style="text;html=1;align=center;verticalAlign=middle;resizable=0;points=[];autosize=1;strokeColor=none;fillColor=none;" vertex="1" parent="1">
          <mxGeometry x="-774.25" y="-104" width="62" height="26" as="geometry" />
        </mxCell>
        <mxCell id="64Icla_Xy5hZy8p8XkMD-92" style="edgeStyle=orthogonalEdgeStyle;rounded=0;orthogonalLoop=1;jettySize=auto;html=1;exitX=1;exitY=0.5;exitDx=0;exitDy=0;" edge="1" parent="1" source="64Icla_Xy5hZy8p8XkMD-94">
          <mxGeometry relative="1" as="geometry">
            <mxPoint x="-505.25" y="135.86956521739148" as="targetPoint" />
          </mxGeometry>
        </mxCell>
        <mxCell id="64Icla_Xy5hZy8p8XkMD-93" style="edgeStyle=orthogonalEdgeStyle;rounded=0;orthogonalLoop=1;jettySize=auto;html=1;exitX=0.25;exitY=1;exitDx=0;exitDy=0;" edge="1" parent="1" source="64Icla_Xy5hZy8p8XkMD-94">
          <mxGeometry relative="1" as="geometry">
            <mxPoint x="-615.25" y="186.304347826087" as="targetPoint" />
          </mxGeometry>
        </mxCell>
        <mxCell id="64Icla_Xy5hZy8p8XkMD-94" value="INCORRECT" style="rounded=1;whiteSpace=wrap;html=1;" vertex="1" parent="1">
          <mxGeometry x="-725.25" y="86" width="150" height="100" as="geometry" />
        </mxCell>
        <mxCell id="64Icla_Xy5hZy8p8XkMD-95" value="INITIAL" style="text;html=1;align=center;verticalAlign=middle;resizable=0;points=[];autosize=1;strokeColor=none;fillColor=none;" vertex="1" parent="1">
          <mxGeometry x="-510.25" y="121" width="60" height="30" as="geometry" />
        </mxCell>
        <mxCell id="64Icla_Xy5hZy8p8XkMD-96" value="t &amp;gt;= 5" style="text;html=1;align=center;verticalAlign=middle;resizable=0;points=[];autosize=1;strokeColor=none;fillColor=none;" vertex="1" parent="1">
          <mxGeometry x="-575.25" y="106" width="50" height="30" as="geometry" />
        </mxCell>
        <mxCell id="64Icla_Xy5hZy8p8XkMD-97" value="t &amp;lt; 5" style="text;html=1;align=center;verticalAlign=middle;resizable=0;points=[];autosize=1;strokeColor=none;fillColor=none;" vertex="1" parent="1">
          <mxGeometry x="-675.25" y="204" width="50" height="30" as="geometry" />
        </mxCell>
        <mxCell id="64Icla_Xy5hZy8p8XkMD-98" style="edgeStyle=orthogonalEdgeStyle;rounded=0;orthogonalLoop=1;jettySize=auto;html=1;exitX=0;exitY=0.5;exitDx=0;exitDy=0;" edge="1" parent="1">
          <mxGeometry relative="1" as="geometry">
            <mxPoint x="-1313.75" y="136" as="targetPoint" />
            <mxPoint x="-1221.75" y="136" as="sourcePoint" />
          </mxGeometry>
        </mxCell>
        <mxCell id="64Icla_Xy5hZy8p8XkMD-99" value="INITIAL" style="text;html=1;align=center;verticalAlign=middle;resizable=0;points=[];autosize=1;strokeColor=none;fillColor=none;" vertex="1" parent="1">
          <mxGeometry x="-1377.75" y="121" width="60" height="30" as="geometry" />
        </mxCell>
        <mxCell id="64Icla_Xy5hZy8p8XkMD-100" value="t &amp;gt;= 3" style="text;html=1;align=center;verticalAlign=middle;resizable=0;points=[];autosize=1;strokeColor=none;fillColor=none;" vertex="1" parent="1">
          <mxGeometry x="-1290.75" y="108" width="50" height="30" as="geometry" />
        </mxCell>
        <mxCell id="64Icla_Xy5hZy8p8XkMD-101" style="edgeStyle=orthogonalEdgeStyle;rounded=0;orthogonalLoop=1;jettySize=auto;html=1;entryX=0.75;entryY=1;entryDx=0;entryDy=0;" edge="1" parent="1">
          <mxGeometry relative="1" as="geometry">
            <mxPoint x="-1186.5" y="186" as="sourcePoint" />
            <mxPoint x="-1107.03" y="186.20000000000005" as="targetPoint" />
            <Array as="points">
              <mxPoint x="-1186.5" y="206" />
              <mxPoint x="-1107.5" y="206" />
            </Array>
          </mxGeometry>
        </mxCell>
        <mxCell id="64Icla_Xy5hZy8p8XkMD-102" value="t &amp;lt; 3" style="text;html=1;align=center;verticalAlign=middle;resizable=0;points=[];autosize=1;strokeColor=none;fillColor=none;" vertex="1" parent="1">
          <mxGeometry x="-1175.03" y="206" width="50" height="30" as="geometry" />
        </mxCell>
        <mxCell id="64Icla_Xy5hZy8p8XkMD-103" style="edgeStyle=orthogonalEdgeStyle;rounded=0;orthogonalLoop=1;jettySize=auto;html=1;" edge="1" parent="1">
          <mxGeometry relative="1" as="geometry">
            <mxPoint x="-910.87" y="-219" as="sourcePoint" />
            <mxPoint x="-910.87" y="-114" as="targetPoint" />
            <Array as="points">
              <mxPoint x="-910.87" y="-159" />
              <mxPoint x="-910.87" y="-159" />
            </Array>
          </mxGeometry>
        </mxCell>
        <mxCell id="64Icla_Xy5hZy8p8XkMD-104" value="key_pressed&lt;br&gt;AND&lt;br&gt;flg_inp = 3" style="text;html=1;align=center;verticalAlign=middle;resizable=0;points=[];autosize=1;strokeColor=none;fillColor=none;" vertex="1" parent="1">
          <mxGeometry x="-953.25" y="-286" width="86" height="55" as="geometry" />
        </mxCell>
      </root>
    </mxGraphModel>
  </diagram>
  <diagram id="cLbu-ceCX7lcQ-ul4Crq" name="Page-2">
    <mxGraphModel dx="732" dy="565" grid="1" gridSize="10" guides="1" tooltips="1" connect="1" arrows="1" fold="1" page="1" pageScale="1" pageWidth="850" pageHeight="1100" math="0" shadow="0">
      <root>
        <mxCell id="0" />
        <mxCell id="1" parent="0" />
      </root>
    </mxGraphModel>
  </diagram>
</mxfile>
